<?xml version="1.0" encoding="utf-8"?>
<!-- Generator: Adobe Illustrator 19.2.1, SVG Export Plug-In . SVG Version: 6.00 Build 0)  -->
<svg version="1.1" id="Layer_1" xmlns="http://www.w3.org/2000/svg" xmlns:xlink="http://www.w3.org/1999/xlink" x="0px" y="0px"
	 viewBox="0 0 1440 750" style="enable-background:new 0 0 1440 750;" xml:space="preserve">
<style type="text/css">
	.st0{fill:#3DE3CF;}
	.st1{opacity:0.5;fill:url(#SVGID_1_);}
	.st2{fill:#E5354E;stroke:#FFFFFF;stroke-width:2;stroke-miterlimit:10;}
	.st3{fill:none;stroke:#FFFFFF;stroke-width:2;stroke-miterlimit:10;}
	.st4{fill:#91D4F9;stroke:#FFFFFF;stroke-width:2;stroke-miterlimit:10;}
	.st5{fill:url(#SVGID_2_);}
	.st6{fill:none;}
</style>
<g id="Layer_5">
	<path class="st0" d="M1440,750H0V588c5.3-6.3,6.4-9.1,11.6-15.3c59-71.5,107.9-133.5,228.4-133.5c131,0,198,118,432,118
		s299.3-174,415.4-174c116.2,0,215.7,125.2,352.6,125.2V750z"/>
</g>
<g id="rocket">
	<g>
		<linearGradient id="SVGID_1_" gradientUnits="userSpaceOnUse" x1="-214.5801" y1="719.1252" x2="-139.9135" y2="719.1252">
			<stop  offset="0" style="stop-color:#FFFF00"/>
			<stop  offset="1" style="stop-color:#E97300"/>
		</linearGradient>
		<polygon class="st1" points="-139.9,715.5 -208.2,693.5 -197.2,709.8 -212.9,719.5 -197.6,726.8 -214.6,744.8 -140.3,736.1 		"/>
		<path class="st2" d="M-42.6,731c1.2-1.1,1.1-3,0.1-4.1c-17.9-18.5-43-27.7-67.8-25.9c-6.7-6.4-15.3-10-24.6-10.2
			c-9.4-0.2-18.4,3.3-25.3,9.6c-1.7,1.6-1,5.7,2.7,5.1c1.9-0.3,3.8-0.7,5.7-0.7c4.6,0.1,8.9,1.6,12.5,4.2c-0.3,0.5-0.4,0.9-0.4,1.4
			l-0.6,33.7c0,0.5,0.1,0.9,0.3,1.4c-3.8,2.5-8.1,3.8-12.7,3.7c-1.8,0-3.7-0.5-5.7-0.9c-4.1-0.6-4.3,3.6-2.9,4.9
			c6.7,6.6,15.6,10.3,24.9,10.6c9.3,0.2,18.1-3.2,25-9.3C-86.6,757.2-61.2,748.9-42.6,731z"/>
		<line class="st3" x1="-63.8" y1="711.8" x2="-64.5" y2="746.1"/>

			<ellipse transform="matrix(1.836150e-02 -0.9998 0.9998 1.836150e-02 -823.2772 619.9827)" class="st4" cx="-95.9" cy="729.3" rx="14.1" ry="14.1"/>
		<path class="st3" d="M-110,700.9c0,0-25.3,2.4-30.1,8.6"/>
		<path class="st3" d="M-110.4,754.6c0,0-25.4-3.5-29.9-9.7"/>
	</g>
</g>
<g id="Layer_2">
	<linearGradient id="SVGID_2_" gradientUnits="userSpaceOnUse" x1="348.825" y1="356.075" x2="1091.375" y2="1098.625">
		<stop  offset="0" style="stop-color:#AD6BFF"/>
		<stop  offset="1" style="stop-color:#74BCF7"/>
	</linearGradient>
	<path class="st5" d="M0,749.6v-44.7c390.6,0,503.6-202,642.9-195.7s125.3,188.5,321.4,188.5c173.3,0,208.3-118.5,277-118.5
		c68.8,0,72,109,198.7,125.7V750L0,749.6z"/>
</g>
<g id="Layer_5_1_">
	<path class="rocket__line" d="M-384,715c260,0,390.4-136.1,395.6-142.3c59-71.5,107.9-133.5,228.4-133.5c131,0,198,118,432,118
		s434.1-548.5,434.1-664.6"/>
</g>
</svg>
