<?xml version="1.0" encoding="UTF-8" standalone="no"?>
<svg width="32px" height="32px" viewBox="0 0 32 32" version="1.1" xmlns="http://www.w3.org/2000/svg" xmlns:xlink="http://www.w3.org/1999/xlink">
    <g id="Page-1" stroke="none" stroke-width="1" fill="none" fill-rule="evenodd">
        <g id="Homepage" transform="translate(-128.000000, -834.000000)" fill="#0000FF">
            <g id="chevron-down-circle.1" transform="translate(128.000000, 834.000000)">
                <g id="chevron-down-circle">
                    <g id="Page-1">
                        <g id="Icon-Set">
                            <path d="M23.121,11.46 L16,18.59 L8.879,11.46 C8.488,11.07 7.855,11.07 7.464,11.46 C7.074,11.86 7.074,12.49 7.464,12.88 L15.122,20.54 C15.361,20.78 15.689,20.85 16,20.79 C16.311,20.85 16.639,20.78 16.879,20.54 L24.536,12.88 C24.926,12.49 24.926,11.86 24.536,11.46 C24.145,11.07 23.512,11.07 23.121,11.46 L23.121,11.46 L23.121,11.46 Z M16,30 C8.268,30 2,23.73 2,16 C2,8.27 8.268,2 16,2 C23.732,2 30,8.27 30,16 C30,23.73 23.732,30 16,30 L16,30 L16,30 Z M16,0 C7.164,0 0,7.16 0,16 C0,24.84 7.164,32 16,32 C24.837,32 32,24.84 32,16 C32,7.16 24.837,0 16,0 L16,0 L16,0 Z" id="chevron-down-circle"></path>
                        </g>
                    </g>
                </g>
            </g>
        </g>
    </g>
</svg>
