<?xml version="1.0" encoding="UTF-8" standalone="no"?>
<svg width="17px" height="17px" viewBox="0 0 17 17" version="1.1" xmlns="http://www.w3.org/2000/svg" xmlns:xlink="http://www.w3.org/1999/xlink">
    <!-- Generator: Sketch 3.8.3 (29802) - http://www.bohemiancoding.com/sketch -->
    <title>chevron down circle.1</title>
    <desc>Created with Sketch.</desc>
    <defs></defs>
    <g id="Page-1" stroke="none" stroke-width="1" fill="none" fill-rule="evenodd">
        <g id="projects_overview" transform="translate(-130.000000, -646.000000)" fill="#0000FF">
            <g id="Group-6" transform="translate(130.000000, 483.000000)">
                <g id="Group-3" transform="translate(0.000000, 162.000000)">
                    <g id="Group-4">
                        <g id="Group-5">
                            <g id="chevron-down-circle.1" transform="translate(8.500000, 9.500000) rotate(-90.000000) translate(-8.500000, -9.500000) translate(0.000000, 1.000000)">
                                <g id="chevron-down-circle">
                                    <g id="Page-1">
                                        <g id="Icon-Set">
                                            <path d="M12.0534014,5.74444052 L8.34109347,9.3184249 L4.62878556,5.74444052 C4.42495009,5.54894909 4.09495558,5.54894909 3.89112011,5.74444052 C3.68780595,5.94494456 3.68780595,6.26073841 3.89112011,6.45622984 L7.88337597,10.2958821 C8.00797105,10.4161845 8.17896347,10.4512727 8.34109347,10.4211971 C8.50322348,10.4512727 8.6742159,10.4161845 8.7993323,10.2958821 L12.7910668,6.45622984 C12.994381,6.26073841 12.994381,5.94494456 12.7910668,5.74444052 C12.5872314,5.54894909 12.2572369,5.54894909 12.0534014,5.74444052 L12.0534014,5.74444052 L12.0534014,5.74444052 Z M8.34109347,15.0378024 C4.31026005,15.0378024 1.04263668,11.8949017 1.04263668,8.02016129 C1.04263668,4.14542087 4.31026005,1.00252016 8.34109347,1.00252016 C12.3719269,1.00252016 15.6395503,4.14542087 15.6395503,8.02016129 C15.6395503,11.8949017 12.3719269,15.0378024 8.34109347,15.0378024 L8.34109347,15.0378024 L8.34109347,15.0378024 Z M8.34109347,-5.55111512e-16 C3.7347246,-5.55111512e-16 4.73695157e-16,3.58902218 4.73695157e-16,8.02016129 C4.73695157e-16,12.4513004 3.7347246,16.0403226 8.34109347,16.0403226 C12.9479837,16.0403226 16.6821869,12.4513004 16.6821869,8.02016129 C16.6821869,3.58902218 12.9479837,-5.55111512e-16 8.34109347,-5.55111512e-16 L8.34109347,-5.55111512e-16 L8.34109347,-5.55111512e-16 Z" id="chevron-down-circle"></path>
                                        </g>
                                    </g>
                                </g>
                            </g>
                        </g>
                    </g>
                </g>
            </g>
        </g>
    </g>
</svg>