<?xml version="1.0" encoding="UTF-8" standalone="no"?>
<svg width="18px" height="32px" viewBox="0 0 18 32" version="1.1" xmlns="http://www.w3.org/2000/svg" xmlns:xlink="http://www.w3.org/1999/xlink">
    <g id="Page-1" stroke="none" stroke-width="1" fill="none" fill-rule="evenodd">
        <g id="Homepage" transform="translate(-625.000000, -3428.000000)" fill="#000000">
            <g id="Group-11" transform="translate(458.000000, 3402.000000)">
                <g id="Group-8" transform="translate(167.000000, 26.000000)">
                    <g id="Group-9">
                        <path d="M16,5 L2,5 L2,4 C2,2.896 2.896,2 4,2 L14,2 C15.104,2 16,2.896 16,4 L16,5 L16,5 L16,5 Z M2,7 L16,7 L16,20 L2,20 L2,7 L2,7 Z M16,28 C16,29.104 15.104,30 14,30 L4,30 C2.896,30 2,29.104 2,28 L2,22 L16,22 L16,28 L16,28 L16,28 Z M14,0 L4,0 C1.791,0 0,1.791 0,4 L0,28 C0,30.209 1.791,32 4,32 L14,32 C16.209,32 18,30.209 18,28 L18,4 C18,1.791 16.209,0 14,0 L14,0 L14,0 Z M9,28 C10.104,28 11,27.104 11,26 C11,24.896 10.104,24 9,24 C7.896,24 7,24.896 7,26 C7,27.104 7.896,28 9,28 L9,28 L9,28 Z" id="smartphone"></path>
                    </g>
                </g>
            </g>
        </g>
    </g>
</svg>
