<svg width="35px" height="20px" viewBox="0 0 35 20" version="1.1" xmlns="http://www.w3.org/2000/svg" xmlns:xlink="http://www.w3.org/1999/xlink">
    <g id="Page-1" stroke="none" stroke-width="1" fill="none" fill-rule="evenodd">
        <g id="Homepage" transform="translate(-570.000000, -2346.000000)">
            <g id="button" transform="translate(529.000000, 2314.000000)">
                <g id="Group-12" transform="translate(41.000000, 26.000000)">
                    <path d="M17.5,9.5 C14.0777778,9.5 11.2777778,12.3 11.2777778,15.7222222 C11.2777778,19.1444444 14.0777778,21.9444444 17.5,21.9444444 C20.9222222,21.9444444 23.7222222,19.1444444 23.7222222,15.7222222 C23.7222222,12.3 20.9222222,9.5 17.5,9.5 L17.5,9.5 Z M17.5,20.3888889 C14.9333333,20.3888889 12.8333333,18.2888889 12.8333333,15.7222222 C12.8333333,13.1555556 14.9333333,11.0555556 17.5,11.0555556 C20.0666667,11.0555556 22.1666667,13.1555556 22.1666667,15.7222222 C22.1666667,18.2888889 20.0666667,20.3888889 17.5,20.3888889 L17.5,20.3888889 Z M34.7666667,15.1777778 L31.4222222,11.7944444 C27.7277778,8.06111111 22.7888889,6 17.5,6 C12.2111111,6 7.27222222,8.06111111 3.57777778,11.7944444 L0.233333333,15.1777778 C-0.0777777778,15.4888889 -0.0777777778,15.9555556 0.233333333,16.2666667 L3.57777778,19.65 C7.27222222,23.3833333 12.2111111,25.4444444 17.5,25.4444444 C22.7888889,25.4444444 27.7277778,23.3833333 31.4222222,19.65 L34.7666667,16.2666667 C35.0777778,15.9555556 35.0777778,15.4888889 34.7666667,15.1777778 L34.7666667,15.1777778 Z M30.3333333,18.5611111 C26.9111111,21.9833333 22.3611111,23.8888889 17.5,23.8888889 C12.6388889,23.8888889 8.08888889,21.9833333 4.66666667,18.5611111 L1.86666667,15.7222222 L4.66666667,12.8833333 C8.08888889,9.46111111 12.6388889,7.55555556 17.5,7.55555556 C22.3611111,7.55555556 26.9111111,9.46111111 30.3333333,12.8833333 L33.1333333,15.7222222 L30.3333333,18.5611111 L30.3333333,18.5611111 Z" id="View"></path>
                </g>
            </g>
        </g>
    </g>
</svg>
